<svg xmlns="http://www.w3.org/2000/svg" viewBox="0 0 100 100">
  <defs>
    <linearGradient id="grad" x1="0%" y1="0%" x2="100%" y2="100%">
      <stop offset="0%" style="stop-color:#3b82f6;stop-opacity:1" />
      <stop offset="100%" style="stop-color:#8b5cf6;stop-opacity:1" />
    </linearGradient>
  </defs>
  
  <!-- Background Circle -->
  <circle cx="50" cy="50" r="48" fill="#0f172a" stroke="url(#grad)" stroke-width="2"/>
  
  <!-- Gamepad Icon -->
  <path d="M 30 45 Q 25 45 25 50 L 25 55 Q 25 60 30 60 L 40 60 Q 45 60 45 55 L 45 50 Q 45 45 40 45 Z" fill="url(#grad)"/>
  <path d="M 60 45 Q 55 45 55 50 L 55 55 Q 55 60 60 60 L 70 60 Q 75 60 75 55 L 75 50 Q 75 45 70 45 Z" fill="url(#grad)"/>
  <rect x="43" y="48" width="14" height="4" rx="2" fill="url(#grad)"/>
  
  <!-- Letter R -->
  <text x="50" y="38" font-family="Arial, sans-serif" font-size="28" font-weight="bold" fill="url(#grad)" text-anchor="middle">R</text>
</svg>
